# xmcd
#
# Track frame offsets:
# 150
# 26901
# 53233
# 75609
# 98436
# 118977
# 144731
# 169213
# 192367
# 210033
# 228742
# 243059
# 263678
# 277764
# 300902
#
# Disc length: 4207 seconds
#
# Revision: 0
# Processed by: cddbd v1.5.2PL0 Copyright (c) Steve Scherf et al.
# Submitted via: Audion 3.0.2 (http://www.panic.com/audion/)
#
DISCID=c0106d0f
DTITLE=Mark Knopfler - Shangri-La
DYEAR=1900
DGENRE=
TTITLE0=5:15 a.m.
TTITLE1=boom, like that
TTITLE2=sucker row
TTITLE3=the trawlermman's song
TTITLE4=back to tupelo
TTITLE5=our shangri-la
TTITLE6=everybody pays
TTITLE7=song for sonny liston
TTITLE8=whoop de doo
TTITLE9=postcards from paraguay
TTITLE10=all that matters
TTITLE11=stand up guy
TTITLE12=donegan's gone
TTITLE13=don't crash the ambulance
TTITLE14=summer of love
EXTD=
EXTT0=
EXTT1=
EXTT2=
EXTT3=
EXTT4=
EXTT5=
EXTT6=
EXTT7=
EXTT8=
EXTT9=
EXTT10=
EXTT11=
EXTT12=
EXTT13=
EXTT14=
PLAYORDER=
